<?xml version="1.0" encoding="UTF-8"?>
<svg version="1.1" xmlns="http://www.w3.org/2000/svg" width="512" height="512">
<path d="M0 0 C0.67675781 0.26844727 1.35351562 0.53689453 2.05078125 0.81347656 C24.54622131 9.9636488 41.59058362 26.20150368 52.22265625 48.07421875 C53 50 53 50 53 52 C53.94875 51.938125 54.8975 51.87625 55.875 51.8125 C66.38563789 51.89692279 75.51402792 57.15887025 83.2265625 63.96484375 C99.95303834 81.30483898 101.18738207 105.41044856 101.18530273 128.07519531 C101.18748356 130.72998231 101.20567524 133.38434896 101.22460938 136.0390625 C101.26480243 148.24421188 100.89864171 160.30407487 97 172 C97.65226562 172.27972656 98.30453125 172.55945313 98.9765625 172.84765625 C105.08964906 175.65174168 109.25105155 178.3824905 113 184 C113.56654297 184.84111328 113.56654297 184.84111328 114.14453125 185.69921875 C122.65769667 200.39798002 120.9311412 219.20256526 117 235 C113.38114429 246.43982592 107.24066641 258.24629886 97 265 C91.97639443 267.58093497 87.69731614 269.25298917 82 269 C81.95875 270.27875 81.9175 271.5575 81.875 272.875 C79.5043917 296.08720629 65.36749659 317.22384029 48.5974884 332.74206543 C47 334 47 334 43.64697266 335.54760742 C39.57035819 337.47883442 36.47172403 339.14711622 34 343 C31.62383218 351.52730302 32.45953515 360.8059679 32.6875 369.5625 C32.70450313 372.0266589 32.71563172 374.49086578 32.72070312 376.95507812 C32.74584378 382.97227414 32.84435323 388.98483988 33 395 C34.21679443 395.13865479 35.43358887 395.27730957 36.68725586 395.42016602 C71.47183433 399.78741704 107.98710826 421.254633 134 444 C134.80050781 444.6909375 135.60101563 445.381875 136.42578125 446.09375 C148.17930366 456.44134868 158.70101265 467.40048842 168 480 C168.45568359 480.61617188 168.91136719 481.23234375 169.38085938 481.8671875 C170.74189645 483.7177372 172.09280052 485.57504992 173.4375 487.4375 C173.83864014 487.99236084 174.23978027 488.54722168 174.65307617 489.11889648 C182.07909966 499.57620613 182.07909966 499.57620613 181.8125 504.375 C181 507 181 507 180 508 C177.90130983 508.10067371 175.79916233 508.12924796 173.69806004 508.13142776 C172.69433409 508.13450672 172.69433409 508.13450672 171.67033085 508.13764787 C169.40004004 508.1433585 167.12980912 508.14185566 164.85951233 508.14044189 C163.226653 508.1430232 161.5937943 508.1460357 159.96093649 508.1494453 C155.45203068 508.157546 150.94314076 508.15930656 146.43422854 508.16004276 C141.58003408 508.16188798 136.72584798 508.16943255 131.87165833 508.17617798 C121.24795625 508.18978314 110.62425794 508.19578928 100.0005486 508.20018864 C93.37333995 508.20294712 86.74613276 508.20718372 80.11892509 508.21169281 C61.78779345 508.22388784 43.45666299 508.23418701 25.12552738 508.2375679 C23.95139157 508.23778747 22.77725576 508.23800703 21.56754008 508.23823325 C20.39051969 508.23845153 19.21349931 508.23866981 18.00081164 508.2388947 C15.61553132 508.23933817 13.23025101 508.23978474 10.8449707 508.24023438 C9.07018071 508.24056652 9.07018071 508.24056652 7.25953638 508.24090537 C-11.92525044 508.2448559 -31.10999933 508.26231661 -50.29477149 508.2855939 C-69.96833021 508.30927256 -89.64186988 508.32176814 -109.3154431 508.32293582 C-120.37082296 508.3238545 -131.4261534 508.3296551 -142.4815197 508.34775543 C-151.89294724 508.36310942 -161.30431009 508.36830481 -170.71574777 508.36001733 C-175.52200865 508.35609418 -180.32813909 508.35712093 -185.13438416 508.37107468 C-189.52804651 508.38371455 -193.92147909 508.38270443 -198.31514067 508.37048396 C-199.91069652 508.36850962 -201.50626809 508.37168445 -203.10180175 508.38032833 C-205.25889284 508.39128121 -207.4151527 508.38403485 -209.57221889 508.3719368 C-210.77387139 508.37253389 -211.97552388 508.37313097 -213.21359009 508.37374616 C-214.59286299 508.18874181 -214.59286299 508.18874181 -216 508 C-218 505 -218 505 -217.96875 502.35546875 C-216.63296223 497.72868772 -214.22172434 494.24936129 -211.5 490.3125 C-210.95754639 489.51521484 -210.41509277 488.71792969 -209.85620117 487.89648438 C-205.55088159 481.63927613 -201.00763479 475.71643603 -196 470 C-195.319375 469.20980469 -194.63875 468.41960937 -193.9375 467.60546875 C-183.30726966 455.50967356 -171.99964356 444.51303396 -159 435 C-157.95328125 434.23171875 -156.9065625 433.4634375 -155.828125 432.671875 C-138.18172253 420.11746926 -119.16540236 410.22510284 -98.875 402.6875 C-97.62553589 402.21739502 -97.62553589 402.21739502 -96.35083008 401.73779297 C-88.08176038 398.77079145 -79.5602303 396.91236522 -71 395 C-70.86380209 387.86439367 -70.81384757 380.73186029 -70.82299805 373.5949707 C-70.81603493 371.16905259 -70.78954175 368.74310702 -70.74291992 366.31762695 C-69.82665912 352.95069991 -69.82665912 352.95069991 -74.31347656 341.00366211 C-77.16079611 339.23000522 -79.84274981 338.10543799 -83 337 C-87.38503445 333.86458382 -91.166755 329.78066276 -95 326 C-95.80566406 325.20722656 -96.61132812 324.41445313 -97.44140625 323.59765625 C-110.08054703 310.38700649 -121.24829516 289.78352843 -122.1875 271.3125 C-122.0946875 270.1678125 -122.0946875 270.1678125 -122 269 C-123.9490625 268.690625 -123.9490625 268.690625 -125.9375 268.375 C-134.32943678 266.48813371 -141.33327455 261.16591091 -146 254 C-156.48710546 236.02583168 -160.94894042 216.51374267 -156 196 C-153.58639574 188.56792048 -150.60497684 182.48991866 -145 177 C-144.34 176.34 -143.68 175.68 -143 175 C-143.44730469 174.41734375 -143.89460938 173.8346875 -144.35546875 173.234375 C-156.23627957 157.12308356 -158.93917394 139.98937059 -156.5703125 120.45703125 C-154.99783188 113.26438842 -151.36115591 102.36115591 -146 97 C-146.75925781 97.05800781 -147.51851563 97.11601563 -148.30078125 97.17578125 C-151.26501275 97.31034429 -154.05172709 97.34685564 -157 97 C-159.3125 94.8125 -159.3125 94.8125 -160 92 C-158.76146371 87.48872541 -156.31304756 84.96673804 -153 81.75 C-152.113125 80.87859375 -151.22625 80.0071875 -150.3125 79.109375 C-148 77 -148 77 -146 76 C-148.64 75.34 -151.28 74.68 -154 74 C-154.9375 70.9375 -154.9375 70.9375 -155 67 C-151.55933228 61.89832028 -146.03310756 58.38964387 -141 55 C-141.66 54.01 -142.32 53.02 -143 52 C-142.65979075 43.88222929 -138.47250638 39.60390837 -133 34 C-102.63650472 6.54975899 -39.57824237 -15.77781284 0 0 Z " fill="#192937" transform="translate(274,4)"/>
<path d="M0 0 C0.40557129 0.74382935 0.40557129 0.74382935 0.81933594 1.50268555 C2.12744536 3.89878455 3.43834392 6.29334058 4.75 8.6875 C5.23936035 9.58146484 5.7287207 10.47542969 6.23291016 11.39648438 C9.35523917 17.07704492 12.55239595 22.70669783 15.81396484 28.30834961 C22.93029679 40.5788469 28.40880868 50.79158003 29.19384766 65.15283203 C29.64954551 72.06063283 31.46659026 77.59017122 36.5625 82.4375 C40.74514966 85.11868568 44.09928604 85.41531474 49 85 C52.10039543 83.24505919 54.48825667 81.51174333 57 79 C60.37050371 78.47129354 62.84051232 78.34295698 65.875 80.0625 C71.45434578 84.48749838 74.50753732 90.09233888 76 97 C77.44349682 114.3000353 76.16395886 131.86939473 65 146 C60.80198056 150.34417872 56.46762482 154.75784743 50.203125 155.1953125 C49.22859375 155.17210937 48.2540625 155.14890625 47.25 155.125 C46.26515625 155.10695313 45.2803125 155.08890625 44.265625 155.0703125 C43.51796875 155.04710937 42.7703125 155.02390625 42 155 C40.69733067 159.09410362 39.88335866 162.92091842 39.375 167.1875 C36.3057011 186.25072361 26.10078874 202.2742195 13 216 C12.20916016 216.90298828 12.20916016 216.90298828 11.40234375 217.82421875 C1.91503832 228.23356409 -10.92526887 234.43518058 -24 239 C-24.87785156 239.32742188 -25.75570312 239.65484375 -26.66015625 239.9921875 C-47.42765684 247.47276233 -73.13858107 244.29096049 -92.875 235.25 C-99.8131328 231.88451125 -106.05053096 227.92982733 -112 223 C-112.86109375 222.28972656 -113.7221875 221.57945312 -114.609375 220.84765625 C-133.2209032 204.802263 -143.15785221 183.45444399 -146.47265625 159.3984375 C-146.81181942 156.82900297 -146.81181942 156.82900297 -149 155 C-150.66522913 154.92772443 -152.33333932 154.91619326 -154 154.9375 C-160.17595867 154.43630964 -163.38825186 152.18016785 -167.70703125 147.84765625 C-179.40004588 133.32600775 -181.66385168 115.05644124 -180 97 C-178.63108828 90.41839618 -175.27014617 84.30834449 -170 80 C-168.125 79.109375 -168.125 79.109375 -166 79 C-163.5625 80.36328125 -163.5625 80.36328125 -161 82.3125 C-154.936629 86.86927119 -151.6101948 88.60398371 -144 88 C-140.48895412 85.62264122 -140.00049364 82.20194989 -139 78.25 C-138.82903809 77.58605225 -138.65807617 76.92210449 -138.48193359 76.23803711 C-137.34188996 71.70831362 -136.45557253 67.15996322 -135.625 62.5625 C-132.56687597 46.86084168 -126.5283772 30.54024288 -113 21 C-103.74880447 15.05680772 -93.06569612 14.72449258 -82.375 14.125 C-71.46556864 13.43014114 -60.65570825 12.36292119 -49.8125 11 C-49.13427185 10.91623108 -48.4560437 10.83246216 -47.75726318 10.74615479 C-37.29832488 9.44606059 -27.39429099 7.52728938 -17.3125 4.5 C-16.59255859 4.28730469 -15.87261719 4.07460937 -15.13085938 3.85546875 C-11.94996665 2.91018978 -8.80399686 1.93198484 -5.66796875 0.84375 C-3 0 -3 0 0 0 Z " fill="#FECBB4" transform="translate(307,108)"/>
<path d="M0 0 C0.69222656 1.55847656 0.69222656 1.55847656 1.3984375 3.1484375 C8.73715344 19.09750492 18.06214302 27.07128351 34 34 C44.85849676 37.61949892 60.07568828 36.29925005 70.34765625 31.48046875 C71.22292969 30.99191406 72.09820312 30.50335938 73 30 C73.82371094 29.54238281 74.64742187 29.08476562 75.49609375 28.61328125 C77.79537364 27.19804152 79.88818106 25.68058873 82 24 C82.67546875 23.47277344 83.3509375 22.94554687 84.046875 22.40234375 C90.91995432 16.34177962 94.26464656 8.18598733 98 0 C116.87422132 1.78808413 135.04121158 9.96862351 152 18 C152.71091797 18.33612305 153.42183594 18.67224609 154.15429688 19.01855469 C170.55533496 26.92414997 185.53516758 37.80737058 199 50 C199.59184082 50.53157715 200.18368164 51.0631543 200.79345703 51.61083984 C202.66192072 53.29455875 204.52070179 54.98819894 206.375 56.6875 C206.93421143 57.19796875 207.49342285 57.7084375 208.06958008 58.234375 C215.06959854 64.74815091 221.00902512 72.1098006 226.8125 79.6875 C227.38419922 80.42033203 227.95589844 81.15316406 228.54492188 81.90820312 C229.09341797 82.62298828 229.64191406 83.33777344 230.20703125 84.07421875 C230.6966333 84.70932373 231.18623535 85.34442871 231.69067383 85.9987793 C233 88 233 88 235 93 C112.9 93 -9.2 93 -135 93 C-133.238469 88.5961725 -131.31392167 85.45967404 -128.4375 81.8125 C-127.99494873 81.24442627 -127.55239746 80.67635254 -127.09643555 80.09106445 C-123.59808307 75.64876159 -119.90547007 71.41368012 -116.0703125 67.2578125 C-114.21571134 65.23524746 -112.44964839 63.16516016 -110.6875 61.0625 C-86.88740723 33.94778244 -37.28483202 0 0 0 Z " fill="#A97962" transform="translate(206,409)"/>
<path d="M0 0 C-0.64400086 3.87864155 -1.80457276 7.22010376 -3.328125 10.83984375 C-9.31696434 25.35824214 -14.30205249 39.46344298 -17 55 C-17.15404297 55.88187988 -17.30808594 56.76375977 -17.46679688 57.67236328 C-19.17986483 67.74307074 -20.45991152 77.79419008 -21 88 C-24 89 -24 89 -26.625 89.5 C-28.94461452 89.76252526 -28.94461452 89.76252526 -30 91 C-30.09820844 92.4521561 -30.12798352 93.90902943 -30.12939453 95.36450195 C-30.13412277 96.75648552 -30.13412277 96.75648552 -30.13894653 98.17658997 C-30.1369223 99.18694809 -30.13489807 100.19730621 -30.1328125 101.23828125 C-30.13376923 102.27059372 -30.13472595 103.30290619 -30.13571167 104.36650085 C-30.13639381 106.55642762 -30.13453719 108.74635639 -30.13037109 110.9362793 C-30.12503954 114.28764409 -30.13030655 117.63887387 -30.13671875 120.99023438 C-30.13605765 123.11458363 -30.13477584 125.2389328 -30.1328125 127.36328125 C-30.13584885 128.8697094 -30.13584885 128.8697094 -30.13894653 130.40657043 C-30.13579437 131.34401596 -30.13264221 132.28146149 -30.12939453 133.24731445 C-30.12859894 134.07036575 -30.12780334 134.89341705 -30.12698364 135.7414093 C-30.07144162 138.00649089 -30.07144162 138.00649089 -29.45233154 140.16758728 C-28.82288051 142.71751795 -29.56386151 143.92781316 -30.6953125 146.265625 C-31.08203125 147.07386719 -31.46875 147.88210938 -31.8671875 148.71484375 C-32.28226563 149.55144531 -32.69734375 150.38804687 -33.125 151.25 C-33.7128125 152.48169922 -33.7128125 152.48169922 -34.3125 153.73828125 C-40.05718091 165.58433894 -40.05718091 165.58433894 -43 169 C-49.00946017 170.15972038 -54.37032545 168.26825265 -60.16796875 166.55859375 C-63.16000494 165.96844041 -65.08525448 166.19538104 -68 167 C-68 169.31 -68 171.62 -68 174 C-66.91332031 174.29003906 -66.91332031 174.29003906 -65.8046875 174.5859375 C-60.81954385 175.92860286 -55.87405309 177.28749486 -51 179 C-52.63646663 184.01784045 -55.57779652 187.9474444 -58.625 192.1875 C-59.16552002 192.94490479 -59.70604004 193.70230957 -60.26293945 194.48266602 C-66.43756499 203.08116541 -72.97900575 211.13880032 -80.21484375 218.87109375 C-82.19221433 220.96456381 -82.19221433 220.96456381 -83 224 C-98.88732045 218.33209108 -111.06532236 203.05777543 -118.828125 188.59375 C-120.32030585 185.42851789 -121.68984878 182.24438078 -123 179 C-123.37769531 178.12214844 -123.75539062 177.24429688 -124.14453125 176.33984375 C-126.72851749 169.92342849 -127.95406016 163.47400697 -128.96166992 156.66113281 C-129.51617849 152.3885991 -129.51617849 152.3885991 -132 149 C-133.66522913 148.92772443 -135.33333932 148.91619326 -137 148.9375 C-143.17595867 148.43630964 -146.38825186 146.18016785 -150.70703125 141.84765625 C-162.40004588 127.32600775 -164.66385168 109.05644124 -163 91 C-161.63108828 84.41839618 -158.27014617 78.30834449 -153 74 C-151.125 73.109375 -151.125 73.109375 -149 73 C-146.5625 74.36328125 -146.5625 74.36328125 -144 76.3125 C-137.936629 80.86927119 -134.6101948 82.60398371 -127 82 C-123.48895412 79.62264122 -123.00049364 76.20194989 -122 72.25 C-121.82903809 71.58605225 -121.65807617 70.92210449 -121.48193359 70.23803711 C-120.34188996 65.70831362 -119.45557253 61.15996322 -118.625 56.5625 C-115.56687597 40.86084168 -109.5283772 24.54024288 -96 15 C-86.74880447 9.05680772 -76.06569612 8.72449258 -65.375 8.125 C-54.46556864 7.43014114 -43.65570825 6.36292119 -32.8125 5 C-32.13427185 4.91623108 -31.4560437 4.83246216 -30.75726318 4.74615479 C-23.40189556 3.83184871 -16.20268174 2.75565367 -9 1 C-5.75108247 0.27801833 -3.383739 0 0 0 Z " fill="#FEDCCD" transform="translate(290,114)"/>
<path d="M0 0 C1.42187705 1.19894413 2.81616127 2.43106397 4.1875 3.6875 C5.09113281 4.51121094 5.99476563 5.33492187 6.92578125 6.18359375 C16.97411548 15.76962302 28.22729324 30.18076001 29.42578125 44.54296875 C29.61433065 53.00784463 29.02735043 58.34284164 23.375 64.73828125 C11.32469832 76.50061616 -6.64261071 80.51732145 -22.75 83.1875 C-23.99056152 83.39689209 -25.23112305 83.60628418 -26.50927734 83.82202148 C-40.88087503 86.13816255 -55.40898646 87.16108669 -69.92163086 88.16796875 C-83.67839925 89.17217809 -95.70972739 90.81780383 -106.8125 99.6875 C-107.47765625 100.20441406 -108.1428125 100.72132812 -108.828125 101.25390625 C-121.01455801 111.97700774 -125.4716104 128.43402228 -128.8125 143.6875 C-129.20726616 145.42211821 -129.60310792 147.15649198 -130 148.890625 C-130.96669801 153.15025357 -131.89903449 157.41615571 -132.8125 161.6875 C-143.26577834 158.68351 -152.2062762 150.07542991 -157.50390625 140.69140625 C-164.6135385 126.69485313 -167.84099148 111.68376514 -162.8359375 96.32421875 C-159.36492529 87.38172546 -155.33514826 80.49349404 -148.5078125 73.78344727 C-145.61365412 70.88475417 -144.02549051 68.85183166 -143.8125 64.6875 C-145.55206658 62.94793342 -148.0061622 63.31559614 -150.375 63.125 C-151.89287109 62.99931641 -151.89287109 62.99931641 -153.44140625 62.87109375 C-154.22386719 62.81050781 -155.00632813 62.74992187 -155.8125 62.6875 C-152.11189798 58.76261907 -148.3218075 55.66534457 -143.8125 52.6875 C-143.1525 52.6875 -142.4925 52.6875 -141.8125 52.6875 C-141.8125 50.0475 -141.8125 47.4075 -141.8125 44.6875 C-145.7725 44.3575 -149.7325 44.0275 -153.8125 43.6875 C-143.15101483 33.02601483 -127.88829679 28.98284501 -113.8125 24.6875 C-113.76995644 22.68795254 -113.77169217 20.68708364 -113.8125 18.6875 C-114.90429483 17.37154693 -114.90429483 17.37154693 -117.5859375 17.5546875 C-125.05305817 17.57088516 -132.39188573 17.8394298 -139.8125 18.6875 C-108.79666116 -15.32987163 -37.58380341 -27.86962962 0 0 Z " fill="#355D7C" transform="translate(291.8125,25.3125)"/>
<path d="M0 0 C1.67614786 0.8566978 3.3456526 1.7269257 5 2.625 C6.97937603 3.7577776 6.97937603 3.7577776 9.8125 2.4375 C12.42990231 3.82724457 14.84032592 5.25907446 17.3125 6.875 C18.03010498 7.33511475 18.74770996 7.79522949 19.48706055 8.26928711 C32.40339415 16.62232184 44.28455143 26.0602397 55.5625 36.5 C56.48337402 37.34812256 56.48337402 37.34812256 57.42285156 38.21337891 C64.56950679 44.90734843 70.67997946 52.36248193 76.625 60.125 C77.19669922 60.85783203 77.76839844 61.59066406 78.35742188 62.34570312 C78.90591797 63.06048828 79.45441406 63.77527344 80.01953125 64.51171875 C80.5091333 65.14682373 80.99873535 65.78192871 81.50317383 66.4362793 C82.8125 68.4375 82.8125 68.4375 84.8125 73.4375 C0.0025 73.1075 -84.8075 72.7775 -172.1875 72.4375 C-168.18253014 70.43501507 -165.45065248 69.89993511 -161.0625 69.25 C-109.26320526 60.74393863 -56.18682849 37.89678703 -13.81640625 7.09375 C-13.2143335 6.65619385 -12.61226074 6.2186377 -11.99194336 5.76782227 C-10.74300771 4.84704695 -9.50482776 3.91156952 -8.27563477 2.96459961 C-3.52649693 -0.62232299 -3.52649693 -0.62232299 0 0 Z " fill="#976555" transform="translate(356.1875,428.5625)"/>
<path d="M0 0 C0.07671463 6.47371743 0.12887575 12.94731557 0.16479492 19.42138672 C0.1797854 21.61902243 0.20018466 23.81662871 0.22631836 26.01416016 C0.60112543 58.36515487 0.60112543 58.36515487 -11.8828125 72.06640625 C-21.49591466 81.07625706 -33.08829121 84.58915257 -46.08203125 84.37109375 C-57.78593326 83.26254869 -67.5087218 77.43590262 -75.06640625 68.578125 C-80.89578179 60.74071822 -84.14059188 52.03485137 -84.11352539 42.2097168 C-84.11344986 41.28913986 -84.11337433 40.36856293 -84.11329651 39.42008972 C-84.10813522 38.4397023 -84.10297394 37.45931488 -84.09765625 36.44921875 C-84.0962413 35.43527542 -84.09482635 34.42133209 -84.09336853 33.37666321 C-84.08778328 30.14691179 -84.07523345 26.91723038 -84.0625 23.6875 C-84.0574831 21.49414163 -84.05292052 19.30078217 -84.04882812 17.10742188 C-84.03781868 11.73825747 -84.0210952 6.36913374 -84 1 C-82.41205086 1.47547194 -80.82417436 1.95118648 -79.23632812 2.42700195 C-78.35207153 2.69188919 -77.46781494 2.95677643 -76.5567627 3.22969055 C-74.44142728 3.86700541 -72.32960247 4.51595957 -70.21875 5.16796875 C-48.67896742 11.0733083 -25.03520346 9.63515381 -4.4765625 0.98828125 C-2 0 -2 0 0 0 Z " fill="#FECCB5" transform="translate(297,352)"/>
<path d="M0 0 C3.02214861 1.51107431 4.15310978 4.22966467 6 7 C6.8942009 14.60070766 6.85250159 21.8156977 2 28 C-9.84355201 41.4005707 -28.98245493 45.68930257 -45.9375 48.5 C-47.17806152 48.70939209 -48.41862305 48.91878418 -49.69677734 49.13452148 C-64.06837503 51.45066255 -78.59648646 52.47358669 -93.10913086 53.48046875 C-106.86589925 54.48467809 -118.89722739 56.13030383 -130 65 C-130.66515625 65.51691406 -131.3303125 66.03382812 -132.015625 66.56640625 C-144.18031184 77.27037282 -148.7007674 93.75549781 -152 109 C-152.32140533 110.4375468 -152.64301143 111.87504873 -152.96484375 113.3125 C-153.67020292 116.53699906 -154.35065603 119.7638386 -155 123 C-157.57488315 123.68485666 -159.41548289 124.15602198 -162.01953125 123.4609375 C-164.18363782 122.150215 -165.51571599 121.06635617 -167 119 C-167.93368417 114.5964541 -167.48728859 110.44876431 -167 106 C-166.92458984 105.30616211 -166.84917969 104.61232422 -166.77148438 103.89746094 C-164.45540602 84.10471499 -157.79090675 65.0790945 -142 52 C-119.06660823 35.529655 -94.9029036 34.94046669 -67.9375 36.76171875 C-50.48716087 37.81774126 -36.95030314 36.93550268 -23 25 C-17.41731952 20.02744854 -12.79182036 14.3866011 -8.12109375 8.56640625 C-5.58193717 5.49416707 -2.88918725 2.7410238 0 0 Z " fill="#2D4D66" transform="translate(315,60)"/>
<path d="M0 0 C9.91433929 1.57370465 16.996909 5.88963699 23.37109375 13.68359375 C29.29269983 22.10448681 32.18539655 30.94788018 34 41 C34.17128418 41.86947266 34.34256836 42.73894531 34.51904297 43.63476562 C35.10388386 47.7268706 35.20030736 51.72299607 35.23828125 55.8515625 C35.246353 56.70567719 35.25442474 57.55979187 35.26274109 58.43978882 C35.27653694 60.25020349 35.2872791 62.06064369 35.29516602 63.87109375 C35.30656474 65.68204639 35.32681848 67.49296879 35.35668945 69.30371094 C35.52141319 79.31965047 35.17156948 88.97430566 33.29296875 98.8359375 C33.14563797 99.64012115 32.99830719 100.44430481 32.84651184 101.27285767 C31.46007656 107.78780647 28.73857419 113.26142581 24 118 C20.82575224 117.83721806 19.44017036 117.4716111 17.25 115.125 C14.43583672 110.34092242 14.75270786 105.53897283 14.57421875 100.12890625 C13.61350685 90.35129826 8.95604784 81.33684051 4.375 72.8125 C3.85301025 71.82580322 3.33102051 70.83910645 2.79321289 69.82250977 C-1.24352143 62.25416866 -5.50799394 54.83781701 -9.94140625 47.49609375 C-15.17069713 38.72546282 -15.17069713 38.72546282 -14.5 35.875 C-13 34 -13 34 -10.6875 32.25 C-4.94321364 27.44083002 -1.39397111 20.32387997 0 13 C0.22570127 8.65279735 0.18144784 4.34802796 0 0 Z " fill="#355D7B" transform="translate(330,66)"/>
<path d="M0 0 C1.59320333 0.47504477 3.18617641 0.95086183 4.77905273 1.42700195 C5.6661644 1.69188919 6.55327606 1.95677643 7.4672699 2.22969055 C9.49870556 2.84753534 11.51902845 3.50186686 13.53515625 4.16796875 C28.62573237 8.52969673 44.4457642 7.35779008 60 7 C50.14953961 32.14945669 37.76813722 53.15512372 16 70 C16.495 70.45375 16.99 70.9075 17.5 71.375 C19 73 19 73 19 75 C12.56545513 73.44011033 8.8076848 67.95587304 5.51171875 62.56640625 C0.76110365 53.58367977 -0.30357308 45.1241343 -0.1953125 35.05859375 C-0.1924826 34.05031021 -0.18965271 33.04202667 -0.18673706 32.00318909 C-0.17563177 28.81450017 -0.15054545 25.62610259 -0.125 22.4375 C-0.11495772 20.26237388 -0.10583406 18.08724331 -0.09765625 15.91210938 C-0.07572416 10.6079752 -0.04234411 5.30400843 0 0 Z " fill="#FEDCCD" transform="translate(213,353)"/>
<path d="M0 0 C1.19140625 1.72265625 1.19140625 1.72265625 2.5625 4.0625 C6.49618624 10.14876031 11.59813661 13.72688945 17.5546875 17.70703125 C30.32225724 26.30282668 36.83652772 37.32812396 40.5390625 52.3125 C41.32780519 56.91127093 41.26911558 61.35603121 41 66 C40.98066406 66.79535156 40.96132813 67.59070313 40.94140625 68.41015625 C40.55727826 75.19641734 37.78237868 80.21762132 33 85 C29.82575224 84.83721806 28.44017036 84.4716111 26.25 82.125 C23.43583672 77.34092242 23.75270786 72.53897283 23.57421875 67.12890625 C22.61350685 57.35129826 17.95604784 48.33684051 13.375 39.8125 C12.59201538 38.33245483 12.59201538 38.33245483 11.79321289 36.82250977 C7.75647857 29.25416866 3.49200606 21.83781701 -0.94140625 14.49609375 C-2.78730531 11.39672802 -4.54424402 8.30678345 -6 5 C-5.3125 2.6875 -5.3125 2.6875 -4 1 C-2 0 -2 0 0 0 Z " fill="#2D4D66" transform="translate(321,99)"/>
<path d="M0 0 C4.62240415 0.39828968 9.00086682 1.47450868 13.5 2.5625 C27.42349401 5.54212412 42.74114542 5.80312712 56.16015625 0.77734375 C59.48899037 -0.13385018 61.67951619 0.15662603 65 1 C65.495 1.495 65.495 1.495 66 2 C65.71269945 4.33944736 65.38063221 6.6739143 65 9 C43.83252821 17.43423441 20.17289433 17.89261562 -1 9 C-1.625 5.625 -1.625 5.625 -2 2 C-1.34 1.34 -0.68 0.68 0 0 Z " fill="#1F2E3B" transform="translate(223,279)"/>
<path d="M0 0 C2.4375 0.8125 2.4375 0.8125 4.4375 2.8125 C4.69819641 4.81712341 4.69819641 4.81712341 4.7121582 7.30639648 C4.72169022 8.23753769 4.73122223 9.16867889 4.74104309 10.1280365 C4.74013168 11.13637039 4.73922028 12.14470428 4.73828125 13.18359375 C4.74256638 14.21686295 4.7468515 15.25013214 4.75126648 16.31471252 C4.75701683 18.50285102 4.75750488 20.69100863 4.75317383 22.87915039 C4.75001609 26.23291559 4.7734571 29.58579724 4.79882812 32.93945312 C4.8011012 35.06249888 4.80180457 37.18554702 4.80078125 39.30859375 C4.809991 40.31490341 4.81920074 41.32121307 4.82868958 42.35801697 C4.82246078 43.29231033 4.81623199 44.2266037 4.80981445 45.18920898 C4.81044388 46.01146469 4.8110733 46.8337204 4.8117218 47.68089294 C4.34556776 50.33615577 3.61345154 51.25173 1.4375 52.8125 C-1.6875 52.625 -1.6875 52.625 -4.5625 51.8125 C-5.74905283 49.43939434 -5.70162339 47.96650279 -5.72363281 45.31860352 C-5.73324036 44.38746231 -5.7428479 43.45632111 -5.75274658 42.4969635 C-5.75699646 41.48862961 -5.76124634 40.48029572 -5.765625 39.44140625 C-5.77132507 38.40813705 -5.77702515 37.37486786 -5.78289795 36.31028748 C-5.79235453 34.12215196 -5.79888454 31.93400217 -5.80273438 29.74584961 C-5.81245027 26.39216413 -5.84347203 23.03908869 -5.875 19.68554688 C-5.88152884 17.56250365 -5.88677978 15.43945603 -5.890625 13.31640625 C-5.9029718 12.31009659 -5.9153186 11.30378693 -5.92803955 10.26698303 C-5.9235379 8.86554298 -5.9235379 8.86554298 -5.91894531 7.43579102 C-5.92259094 6.61353531 -5.92623657 5.7912796 -5.92999268 4.94410706 C-5.29511804 1.26157582 -3.72703787 -0.27271009 0 0 Z " fill="#1F2E3A" transform="translate(264.5625,202.1875)"/>
<path d="M0 0 C6.4579956 0.27661925 10.90926 3.84560462 16.0625 7.375 C17.46640991 8.32620728 17.46640991 8.32620728 18.89868164 9.29663086 C26.37067622 14.42697471 33.31547473 19.89140428 40 26 C40.58894043 26.53012695 41.17788086 27.06025391 41.78466797 27.60644531 C43.65565534 29.29204596 45.51747142 30.98708441 47.375 32.6875 C47.93437256 33.19804932 48.49374512 33.70859863 49.07006836 34.23461914 C56.0695472 40.74878967 62.00907852 48.10987032 67.8125 55.6875 C68.38419922 56.42033203 68.95589844 57.15316406 69.54492188 57.90820312 C70.36766602 58.98038086 70.36766602 58.98038086 71.20703125 60.07421875 C71.6966333 60.70932373 72.18623535 61.34442871 72.69067383 61.9987793 C74 64 74 64 76 69 C-8.81 68.67 -93.62 68.34 -181 68 C-177.52630934 66.26315467 -175.92380063 65.69915888 -172.25 65.375 C-171.05117187 65.26285156 -171.05117187 65.26285156 -169.828125 65.1484375 C-169.22484375 65.09945312 -168.6215625 65.05046875 -168 65 C-168 65.33 -168 65.66 -168 66 C-88.8 66.33 -9.6 66.66 72 67 C53.91052714 41.15789592 32.81098315 20.45298904 5.58789062 4.38916016 C3.71222116 3.28122389 1.8540442 2.14375644 0 1 C0 0.67 0 0.34 0 0 Z " fill="#9D6E5A" transform="translate(365,433)"/>
<path d="M0 0 C1.24160133 -0.01418472 1.24160133 -0.01418472 2.50828552 -0.02865601 C3.39895218 -0.02258331 4.28961884 -0.01651062 5.20727539 -0.01025391 C6.12577774 -0.01312408 7.04428009 -0.01599426 7.99061584 -0.01895142 C9.93320329 -0.02099291 11.87581125 -0.01545708 13.81835938 -0.00292969 C16.79026376 0.01310446 19.76080436 -0.00276599 22.73266602 -0.02197266 C24.62003881 -0.01998988 26.50741075 -0.01614549 28.39477539 -0.01025391 C29.28341782 -0.0163266 30.17206024 -0.02239929 31.08763123 -0.02865601 C37.27865502 0.04180526 37.27865502 0.04180526 40.45947266 1.91308594 C40.92409912 2.39986816 41.38872559 2.88665039 41.86743164 3.38818359 C41.11743164 8.13818359 41.11743164 8.13818359 38.86743164 10.38818359 C36.9699707 10.64215088 36.9699707 10.64215088 34.63305664 10.64697266 C33.75875 10.65327698 32.88444336 10.6595813 31.98364258 10.66607666 C30.56486816 10.66000397 30.56486816 10.66000397 29.11743164 10.65380859 C28.14837891 10.65572205 27.17932617 10.6576355 26.1809082 10.65960693 C24.12979879 10.66096939 22.07868078 10.65726877 20.02758789 10.64892578 C16.88025625 10.63822719 13.73349544 10.64881913 10.58618164 10.66162109 C8.59659704 10.66029951 6.6070128 10.65773714 4.61743164 10.65380859 C3.67158203 10.65785706 2.72573242 10.66190552 1.7512207 10.66607666 C0.87691406 10.65977234 0.00260742 10.65346802 -0.89819336 10.64697266 C-1.669375 10.64538147 -2.44055664 10.64379028 -3.23510742 10.64215088 C-5.13256836 10.38818359 -5.13256836 10.38818359 -7.13256836 8.38818359 C-7.49384378 5.57023535 -7.63775657 4.04343637 -5.87132263 1.75228882 C-3.74026872 0.08041268 -2.68371606 0.00880595 0 0 Z " fill="#22303C" transform="translate(280.132568359375,183.61181640625)"/>
<path d="M0 0 C1.24644287 -0.01429802 1.24644287 -0.01429802 2.51806641 -0.02888489 C3.41187012 -0.02797348 4.30567383 -0.02706207 5.2265625 -0.02612305 C6.14743652 -0.03040817 7.06831055 -0.0346933 8.01708984 -0.03910828 C9.96385882 -0.04485068 11.91064926 -0.04535249 13.85742188 -0.04101562 C16.84021457 -0.03785383 19.82201733 -0.06132215 22.8046875 -0.08666992 C24.69531125 -0.08894269 26.58593766 -0.08964652 28.4765625 -0.08862305 C29.37036621 -0.09783279 30.26416992 -0.10704254 31.18505859 -0.11653137 C32.43150146 -0.10718819 32.43150146 -0.10718819 33.703125 -0.09765625 C34.43354004 -0.09828568 35.16395508 -0.0989151 35.91650391 -0.0995636 C38.41997698 0.38458412 39.31225204 1.27531772 40.8515625 3.2746582 C41.1640625 5.8371582 41.1640625 5.8371582 40.8515625 8.2746582 C38.45100868 10.67521203 37.90773042 10.52967519 34.63305664 10.54931641 C33.76197769 10.55884842 32.89089874 10.56838043 31.99342346 10.57820129 C31.05071091 10.57728989 30.10799835 10.57637848 29.13671875 10.57543945 C28.17003769 10.57972458 27.20335663 10.5840097 26.2073822 10.58842468 C24.16047957 10.59417432 22.11355651 10.5946636 20.06665039 10.59033203 C16.93014737 10.5871744 13.79458926 10.61061542 10.65820312 10.63598633 C8.67187619 10.63825944 6.68554672 10.63896276 4.69921875 10.63793945 C3.75853043 10.6471492 2.8178421 10.65635895 1.84864807 10.66584778 C0.97441696 10.65961899 0.10018585 10.6533902 -0.80053711 10.64697266 C-1.95397865 10.64791679 -1.95397865 10.64791679 -3.13072205 10.64888 C-5.69304484 10.17365093 -6.60484741 9.34495598 -8.1484375 7.2746582 C-8.0234375 4.7121582 -8.0234375 4.7121582 -7.1484375 2.2746582 C-4.08700868 0.23370566 -3.45102254 0.02176873 0 0 Z " fill="#22313D" transform="translate(196.1484375,183.725341796875)"/>
<path d="M0 0 C2.72748255 4.09122382 2.60192711 7.20021757 2 12 C0.01537151 19.11269538 -5.1085427 23.85447822 -11 28 C-23.05796273 34.76992991 -36.37198621 38.25119709 -49.9375 40.5 C-51.17806152 40.70939209 -52.41862305 40.91878418 -53.69677734 41.13452148 C-68.06837503 43.45066255 -82.59648646 44.47358669 -97.10913086 45.48046875 C-110.86589925 46.48467809 -122.89722739 48.13030383 -134 57 C-134.66515625 57.51691406 -135.3303125 58.03382812 -136.015625 58.56640625 C-145.0382985 66.50564848 -150.03319193 78.88793196 -154 90 C-154.33 90 -154.66 90 -155 90 C-154.73939774 76.96988723 -145.9679486 65.36611709 -137.359375 56.265625 C-127.05749548 46.56385497 -113.93047453 43.96694111 -100.36328125 42.8515625 C-98.06964244 42.64865233 -95.77602329 42.44551986 -93.48242188 42.2421875 C-89.91819709 41.93367245 -86.35374069 41.62847458 -82.78881836 41.328125 C-44.87088266 38.16870743 -44.87088266 38.16870743 -10 24 C-9.26523437 23.64679688 -8.53046875 23.29359375 -7.7734375 22.9296875 C-5.3636543 21.66640908 -5.01840399 20.51206319 -4 18 C-3.484375 16.989375 -2.96875 15.97875 -2.4375 14.9375 C-0.37845827 10.1746661 -0.26868695 5.12358215 0 0 Z " fill="#325875" transform="translate(319,68)"/>
<path d="M0 0 C3.49406769 1.66762322 4.82670681 2.74006022 7 6 C7.45971784 10.96495273 7.15065843 14.06167696 4 18 C0.79062591 20.32402951 -2.11506021 20.47570691 -6 20 C-8.69990662 18.20006226 -10.5418865 16.916227 -12 14 C-12.57950681 10.26621561 -13.03003198 6.55395828 -10.87109375 3.296875 C-7.39576398 0.13913412 -4.56371749 -0.77680298 0 0 Z " fill="#1F2D3A" transform="translate(300,199)"/>
<path d="M0 0 C2.5 1.5 2.5 1.5 4 4 C4.80607125 8.49216791 4.54680632 11.90638735 2.5 16 C-0.87142172 18.69713738 -3.71532111 19.30665694 -8 19 C-11.62090756 17.42569236 -12.79255284 16.31117074 -15 13 C-15.34061873 9.9830912 -15.57212107 7.90592185 -15 5 C-10.39496092 -0.69570623 -7.05502052 -1.74284104 0 0 Z " fill="#1E2D3A" transform="translate(218,200)"/>
<path d="M0 0 C2.4375 0.8125 2.4375 0.8125 4.4375 2.8125 C4.96484375 4.984375 4.96484375 4.984375 5.375 7.5625 C5.9635929 10.83978527 6.5533187 13.0441374 8.0625 16.0625 C9.65703093 19.25156185 9.83765786 21.29111085 9.4375 24.8125 C8.7775 25.4725 8.1175 26.1325 7.4375 26.8125 C4.20273431 26.72737459 2.77553381 26.11980346 0.375 23.9375 C-3.54589039 17.61348325 -6.66000602 10.33825558 -5.5625 2.8125 C-3.9058551 0.02236122 -3.24544844 -0.23747184 0 0 Z " fill="#202F3C" transform="translate(143.5625,210.1875)"/>
<path d="M0 0 C4.55555556 0.55555556 4.55555556 0.55555556 6 2 C7.07575833 10.72951435 4.85108533 18.04015927 -0.25 25.125 C-0.8275 25.74375 -1.405 26.3625 -2 27 C-6.75 26.25 -6.75 26.25 -9 24 C-8.76866144 19.25755955 -6.95714239 15.47451551 -4.98046875 11.25 C-4.08425611 9.19335267 -3.43925826 7.22925173 -2.875 5.0625 C-2 2 -2 2 0 0 Z " fill="#1E2D3A" transform="translate(364,210)"/>
<path d="M0 0 C3.03043412 2.6400101 4.68733929 5.75742637 6.625 9.25 C9.12840826 13.72922907 11.68447906 18.15914738 14.37011719 22.53173828 C17.94497331 28.36366648 21.28943249 34.2687484 24.375 40.375 C24.69662109 41.0045459 25.01824219 41.6340918 25.34960938 42.28271484 C29.27350463 50.20724116 31.40558878 58.07569575 32.625 66.8125 C32.86565281 68.46506796 33.10778682 70.11742106 33.3515625 71.76953125 C33.45291504 72.48729736 33.55426758 73.20506348 33.65869141 73.94458008 C33.99994812 75.99968757 34.46706113 77.98689564 35 80 C37.70438996 79.63594751 38.74406383 79.31857318 40.484375 77.15234375 C40.90203125 76.42144531 41.3196875 75.69054687 41.75 74.9375 C42.17796875 74.20402344 42.6059375 73.47054687 43.046875 72.71484375 C43.36140625 72.14894531 43.6759375 71.58304687 44 71 C44.33 71.99 44.66 72.98 45 74 C43.22557591 76.99816485 41.46459429 79.53540571 39 82 C35.82575224 81.83721806 34.44017036 81.4716111 32.25 79.125 C29.43583672 74.34092242 29.75270786 69.53897283 29.57421875 64.12890625 C28.61350685 54.35129826 23.95604784 45.33684051 19.375 36.8125 C18.59201538 35.33245483 18.59201538 35.33245483 17.79321289 33.82250977 C13.75647857 26.25416866 9.49200606 18.83781701 5.05859375 11.49609375 C0 3.02960526 0 3.02960526 0 0 Z " fill="#335875" transform="translate(315,102)"/>
<path d="M0 0 C1.80521974 4.81391931 -0.38457214 8.24791542 -2.35546875 12.7109375 C-7.15257277 22.30514553 -13.63002776 30.2790767 -21 38 C-21.53882813 38.61359375 -22.07765625 39.2271875 -22.6328125 39.859375 C-28.10462624 45.85362322 -35.13282566 49.79968948 -42 54 C-42 53.01 -42 52.02 -42 51 C-40.015625 49.5625 -40.015625 49.5625 -37.25 48 C-18.79330137 36.65114423 -8.07505217 19.73901641 0 0 Z " fill="#F4D3C4" transform="translate(341,286)"/>
<path d="M0 0 C7.26 0.66 14.52 1.32 22 2 C20 4 20 4 16.734375 4.265625 C15.41953125 4.26046875 14.1046875 4.2553125 12.75 4.25 C11.44546875 4.25515625 10.1409375 4.2603125 8.796875 4.265625 C5.16952464 4.01185975 2.36967005 3.31856654 -1 2 C-0.67 1.34 -0.34 0.68 0 0 Z " fill="#E4C7BA" transform="translate(242,432)"/>
<path d="M0 0 C0.66 0 1.32 0 2 0 C0.66938508 2.87666273 -0.82287977 5.21136636 -2.875 7.625 C-3.36742187 8.21539062 -3.85984375 8.80578125 -4.3671875 9.4140625 C-6.12154783 11.11805842 -7.77028708 12.02510387 -10 13 C-10.33 12.34 -10.66 11.68 -11 11 C-10.45730469 10.54109375 -9.91460937 10.0821875 -9.35546875 9.609375 C-8.64003906 8.99578125 -7.92460937 8.3821875 -7.1875 7.75 C-6.47980469 7.14671875 -5.77210938 6.5434375 -5.04296875 5.921875 C-2.94002444 4.06082782 -2.94002444 4.06082782 -1.36328125 1.765625 C-0.91339844 1.18296875 -0.46351563 0.6003125 0 0 Z " fill="#EACBBE" transform="translate(288,416)"/>
<path d="M0 0 C3.37743989 0.25018073 4.25135369 1.25719913 6.6875 3.75 C8.83054493 6.76184693 9.68158801 8.39133078 10 12 C8.11418931 10.29379033 6.86394934 8.76930541 5.5625 6.5625 C3.97178784 3.95373206 2.22795561 2.0743035 0 0 Z " fill="#F6D4C6" transform="translate(370,188)"/>
<path d="M0 0 C0 0.99 0 1.98 0 3 C-2.93026082 5.7349101 -5.17727085 7.72575695 -9 9 C-9.33 8.34 -9.66 7.68 -10 7 C-9.36191406 6.57847656 -8.72382813 6.15695312 -8.06640625 5.72265625 C-7.24011719 5.17480469 -6.41382813 4.62695312 -5.5625 4.0625 C-4.73878906 3.51722656 -3.91507812 2.97195312 -3.06640625 2.41015625 C-1.10014075 1.16197019 -1.10014075 1.16197019 0 0 Z " fill="#F6D5C6" transform="translate(370,253)"/>
<path d="M0 0 C0.33 0 0.66 0 1 0 C0.67 3.3 0.34 6.6 0 10 C-0.99 10.33 -1.98 10.66 -3 11 C-2.69217504 9.35328588 -2.37860766 7.70764424 -2.0625 6.0625 C-1.88847656 5.14597656 -1.71445313 4.22945312 -1.53515625 3.28515625 C-1 1 -1 1 0 0 Z " fill="#315672" transform="translate(163,159)"/>
<path d="M0 0 C5.75 1.875 5.75 1.875 8 3 C7.67 3.99 7.34 4.98 7 6 C4.36 4.68 1.72 3.36 -1 2 C-0.67 1.34 -0.34 0.68 0 0 Z " fill="#9E715E" transform="translate(356,427)"/>
<path d="M0 0 C3.625 0.375 3.625 0.375 7 1 C7 1.66 7 2.32 7 3 C4.03 2.67 1.06 2.34 -2 2 C-1.34 1.34 -0.68 0.68 0 0 Z " fill="#E8C9BC" transform="translate(237,348)"/>
</svg>
